<svg width="28" height="32" viewBox="0 0 28 32" fill="none" xmlns="http://www.w3.org/2000/svg">
<path d="M8.04 28.8533C7.54 28.5689 7.02 28.16 6.5 27.5911C6.14 27.2178 5.7 26.6844 5.18 25.9911C4.28 24.8356 3.54 23.5022 2.98 21.9911C2.36 20.3378 2.06 18.7556 2.06 17.2089C2.06 15.4844 2.48 13.9733 3.3 12.7111C3.94 11.6978 4.8 10.8978 5.9 10.3111C7 9.70667 8.16 9.40444 9.42 9.38667C9.86 9.38667 10.32 9.44 10.82 9.54667C11.18 9.63556 11.62 9.77778 12.14 9.95556C12.82 10.1867 13.2 10.3289 13.32 10.3644C13.72 10.4889 14.06 10.5422 14.32 10.5422C14.52 10.5422 14.8 10.4889 15.12 10.4C15.3 10.3467 15.64 10.24 16.12 10.0622C16.6 9.90222 16.98 9.77778 17.28 9.67111C17.74 9.54667 18.18 9.44 18.58 9.38667C19.06 9.31556 19.54 9.29778 20 9.33333C20.88 9.38667 21.68 9.54667 22.4 9.79556C23.66 10.24 24.68 10.9511 25.44 11.9467C25.12 12.1244 24.82 12.32 24.54 12.5511C23.92 13.0489 23.4 13.6 23.02 14.2044C22.48 15.0578 22.22 16 22.22 16.9778C22.24 18.1689 22.58 19.2178 23.26 20.1244C23.74 20.7822 24.38 21.3511 25.16 21.8133C25.54 22.0444 25.88 22.2044 26.2 22.3111C26.04 22.7733 25.86 23.1822 25.7 23.52C25.26 24.4444 24.74 25.28 24.16 26.0622C23.62 26.7556 23.2 27.2711 22.88 27.6089C22.38 28.1422 21.9 28.5333 21.42 28.8178C20.86 29.1378 20.26 29.2978 19.62 29.2978C19.18 29.3156 18.76 29.2622 18.34 29.1556C18.1 29.0844 17.74 28.9778 17.28 28.8C16.82 28.6222 16.44 28.4978 16.16 28.4267C15.7 28.32 15.22 28.2667 14.72 28.2667C14.22 28.2667 13.74 28.32 13.28 28.4267C12.96 28.4978 12.6 28.6222 12.16 28.7822C11.64 28.9778 11.3 29.1022 11.1 29.1556C10.7 29.2622 10.28 29.3333 9.88 29.3511C9.24 29.3511 8.64 29.1911 8.04 28.8533ZM16.52 8.55111C15.68 8.92444 14.88 9.08444 14.08 9.03111C13.96 8.32 14.08 7.59111 14.42 6.79111C14.72 6.11556 15.12 5.49333 15.66 4.94222C16.2 4.39111 16.86 3.92889 17.68 3.55556C18.5 3.18222 19.28 2.98667 20.02 2.95111C20.12 3.69778 20.02 4.44444 19.72 5.22667C19.44 5.93778 19.02 6.57778 18.48 7.16444C17.94 7.75111 17.28 8.21333 16.52 8.55111Z" fill="#19191A"/>
</svg>
