<svg width="24" height="28" viewBox="0 0 24 28" fill="none" xmlns="http://www.w3.org/2000/svg">
<path d="M6.8914 25.2467C6.46283 24.9978 6.01711 24.64 5.5714 24.1422C5.26283 23.8156 4.88569 23.3489 4.43997 22.7422C3.66854 21.7311 3.03426 20.5644 2.55426 19.2422C2.02283 17.7955 1.76569 16.4111 1.76569 15.0578C1.76569 13.5489 2.12569 12.2267 2.82854 11.1222C3.37711 10.2355 4.11426 9.53555 5.05711 9.02222C5.99997 8.49333 6.99426 8.22888 8.07426 8.21333C8.4514 8.21333 8.84569 8.25999 9.27426 8.35333C9.58283 8.4311 9.95997 8.55555 10.4057 8.7111C10.9885 8.91333 11.3143 9.03777 11.4171 9.06888C11.76 9.17777 12.0514 9.22444 12.2743 9.22444C12.4457 9.22444 12.6857 9.17777 12.96 9.09999C13.1143 9.05333 13.4057 8.95999 13.8171 8.80444C14.2285 8.66444 14.5543 8.55555 14.8114 8.46222C15.2057 8.35333 15.5828 8.25999 15.9257 8.21333C16.3371 8.1511 16.7485 8.13555 17.1428 8.16666C17.8971 8.21333 18.5828 8.35333 19.2 8.5711C20.28 8.95999 21.1543 9.58221 21.8057 10.4533C21.5314 10.6089 21.2743 10.78 21.0343 10.9822C20.5028 11.4178 20.0571 11.9 19.7314 12.4289C19.2685 13.1755 19.0457 14 19.0457 14.8555C19.0628 15.8978 19.3543 16.8155 19.9371 17.6089C20.3485 18.1844 20.8971 18.6822 21.5657 19.0867C21.8914 19.2889 22.1828 19.4289 22.4571 19.5222C22.32 19.9267 22.1657 20.2844 22.0285 20.58C21.6514 21.3889 21.2057 22.12 20.7085 22.8044C20.2457 23.4111 19.8857 23.8622 19.6114 24.1578C19.1828 24.6244 18.7714 24.9667 18.36 25.2155C17.88 25.4955 17.3657 25.6355 16.8171 25.6355C16.44 25.6511 16.08 25.6044 15.72 25.5111C15.5143 25.4489 15.2057 25.3556 14.8114 25.2C14.4171 25.0444 14.0914 24.9355 13.8514 24.8733C13.4571 24.78 13.0457 24.7333 12.6171 24.7333C12.1885 24.7333 11.7771 24.78 11.3828 24.8733C11.1085 24.9355 10.8 25.0444 10.4228 25.1844C9.97711 25.3556 9.68569 25.4644 9.51426 25.5111C9.1714 25.6044 8.8114 25.6667 8.46854 25.6822C7.91997 25.6822 7.40569 25.5422 6.8914 25.2467ZM14.16 7.48221C13.44 7.80888 12.7543 7.94888 12.0685 7.90221C11.9657 7.27999 12.0685 6.64221 12.36 5.94221C12.6171 5.3511 12.96 4.80666 13.4228 4.32444C13.8857 3.84221 14.4514 3.43777 15.1543 3.1111C15.8571 2.78444 16.5257 2.61333 17.16 2.58221C17.2457 3.23555 17.16 3.88888 16.9028 4.57333C16.6628 5.19555 16.3028 5.75555 15.84 6.26888C15.3771 6.78222 14.8114 7.18666 14.16 7.48221Z" fill="#19191A"/>
</svg>
