<svg width="179" height="45" viewBox="0 0 179 45" fill="none" xmlns="http://www.w3.org/2000/svg">
<path d="M32.8219 30.7986C32.7739 30.9335 32.0062 33.5434 30.135 36.2396C28.5193 38.5715 26.8411 40.8951 24.1962 40.9424C21.5992 40.9909 20.7632 39.4221 17.7955 39.4221C14.8244 39.4221 13.8959 40.8951 11.4405 40.9909C8.88915 41.0856 6.94352 38.4697 5.31577 36.1474C1.98233 31.3961 -0.560628 22.7228 2.85916 16.8725C4.55287 13.9633 7.58887 12.1224 10.8828 12.0751C13.391 12.029 15.7528 13.7361 17.2858 13.7361C18.8164 13.7361 21.6892 11.6811 24.7096 11.9828C25.9738 12.0361 29.5244 12.4844 31.8047 15.777C31.6236 15.8906 27.5681 18.2176 27.6124 23.0565C27.6652 28.8489 32.7619 30.7749 32.8219 30.7986ZM22.7304 8.8429C24.0882 7.22328 24.9987 4.97422 24.7492 2.73462C22.7976 2.80561 20.4333 4.01588 19.0359 5.63321C17.78 7.06469 16.6788 9.35518 16.9775 11.5486C19.1522 11.7154 21.3785 10.4578 22.7304 8.8429Z" fill="black"/>
<path d="M50.3476 19.8439H46.1414L45.1321 22.7854H43.3508L47.3344 11.9019H49.1852L53.1688 22.7854H51.3569L50.3476 19.8439ZM46.5775 18.4863H49.9115L48.2676 13.712H48.2214L46.5775 18.4863Z" fill="black"/>
<path d="M61.0751 22.7852H59.4917V21.4202H59.4539C58.9951 22.3702 58.192 22.8757 56.9607 22.8757C55.2094 22.8757 54.1395 21.7595 54.1395 19.9419V14.8508H55.7912V19.6249C55.7912 20.8316 56.3717 21.4729 57.5113 21.4729C58.7042 21.4729 59.4233 20.6583 59.4233 19.4214V14.8508H61.0751L61.0751 22.7852Z" fill="black"/>
<path d="M65.0802 12.9731V14.851H66.6096V16.1409H65.0802V20.5153C65.0802 21.1938 65.3861 21.5109 66.059 21.5109C66.2276 21.5109 66.4951 21.4881 66.6024 21.473V22.7552C66.4189 22.8005 66.0518 22.8306 65.6848 22.8306C64.0559 22.8306 63.4213 22.2272 63.4213 20.6886V16.1409H62.2512V14.851H63.4213V12.9731H65.0802Z" fill="black"/>
<path d="M68.2596 11.9019H69.8963V16.2012H69.9347C70.4163 15.2506 71.2493 14.7605 72.4807 14.7605C74.2469 14.7605 75.3025 15.922 75.3025 17.717V22.7854H73.643V18.0415C73.643 16.8723 73.0468 16.1633 71.8845 16.1633C70.661 16.1633 69.9113 16.993 69.9113 18.2527V22.7854H68.2596V11.9019Z" fill="black"/>
<path d="M76.7695 18.818C76.7695 16.3217 78.2605 14.7529 80.5852 14.7529C82.9177 14.7529 84.4009 16.3217 84.4009 18.818C84.4009 21.322 82.9255 22.8831 80.5852 22.8831C78.2455 22.8831 76.7695 21.322 76.7695 18.818ZM82.7191 18.818C82.7191 17.1061 81.9239 16.0951 80.5852 16.0951C79.2471 16.0951 78.4519 17.1135 78.4519 18.818C78.4519 20.5376 79.2471 21.5409 80.5852 21.5409C81.9239 21.5409 82.7191 20.5376 82.7191 18.818Z" fill="black"/>
<path d="M85.9134 14.8509H87.489V16.2011H87.5268C87.7793 15.3035 88.5134 14.7678 89.4616 14.7678C89.6991 14.7678 89.8976 14.798 90.0278 14.8282V16.352C89.8976 16.299 89.6067 16.2538 89.2859 16.2538C88.2231 16.2538 87.5652 16.9627 87.5652 18.079V22.7853H85.9134L85.9134 14.8509Z" fill="black"/>
<path d="M91.2117 12.7619C91.2117 12.2413 91.6399 11.8267 92.1677 11.8267C92.7027 11.8267 93.1309 12.2413 93.1309 12.7619C93.1309 13.2748 92.7027 13.6894 92.1677 13.6894C91.6399 13.6894 91.2117 13.2748 91.2117 12.7619ZM91.3413 14.8509H92.993V22.7853H91.3413V14.8509Z" fill="black"/>
<path d="M94.7503 21.7367L99.0398 16.1783V16.1481H94.7809V14.8508H100.936V15.9671L96.7535 21.4578V21.4879H100.982V22.7852H94.7503V21.7367Z" fill="black"/>
<path d="M109.339 20.4548C109.117 21.8952 107.694 22.8831 105.875 22.8831C103.534 22.8831 102.082 21.3371 102.082 18.8559C102.082 16.3667 103.542 14.7529 105.806 14.7529C108.031 14.7529 109.431 16.2614 109.431 18.6672V19.2253H103.749V19.3232C103.749 20.6808 104.613 21.5711 105.913 21.5711C106.831 21.5711 107.549 21.141 107.771 20.4548H109.339ZM103.756 18.0863H107.779C107.74 16.8721 106.953 16.0727 105.806 16.0727C104.667 16.0727 103.84 16.8872 103.756 18.0863Z" fill="black"/>
<path d="M110.584 18.8182C110.584 16.3668 111.953 14.7679 113.949 14.7679C115.103 14.7679 116.013 15.2961 116.472 16.171H116.502V11.9019H118.162V22.7854H116.556V21.4352H116.526C116.051 22.3402 115.134 22.8685 113.964 22.8685C111.953 22.8685 110.584 21.2695 110.584 18.8182ZM112.274 18.8182C112.274 20.4473 113.115 21.4881 114.4 21.4881C115.669 21.4881 116.518 20.4322 116.518 18.8182C116.518 17.2192 115.669 16.1556 114.4 16.1556C113.115 16.1556 112.274 17.2042 112.274 18.8182Z" fill="black"/>
<path d="M45.3698 37.9255C45.4921 39.0045 46.5549 39.7132 48.0075 39.7132C49.3996 39.7132 50.4012 39.0045 50.4012 38.0314C50.4012 37.1867 49.7972 36.6815 48.3674 36.3343L46.9369 35.9947C44.9104 35.512 43.9699 34.5774 43.9699 33.0613C43.9699 31.1831 45.6295 29.8936 47.9847 29.8936C50.3172 29.8936 51.9155 31.1831 51.9689 33.0613H50.3016C50.2026 31.9752 49.2922 31.3192 47.9619 31.3192C46.6311 31.3192 45.7212 31.9829 45.7212 32.9483C45.7212 33.7173 46.3024 34.1698 47.7244 34.5171L48.9407 34.8111C51.2042 35.3387 52.1446 36.2361 52.1446 37.8279C52.1446 39.864 50.5007 41.1388 47.8852 41.1388C45.4381 41.1388 43.7864 39.8942 43.6797 37.9255H45.3698Z" fill="black"/>
<path d="M60.5377 38.6272C60.3157 40.0682 58.8931 41.0561 57.0735 41.0561C54.7332 41.0561 53.2806 39.5098 53.2806 37.0282C53.2806 34.5396 54.741 32.9253 57.0045 32.9253C59.2302 32.9253 60.6294 34.4337 60.6294 36.8395V37.398H54.9479V37.4961C54.9479 38.8537 55.8116 39.7434 57.1118 39.7434C58.0295 39.7434 58.748 39.3134 58.9699 38.6272H60.5377ZM54.9551 36.2592H58.9777C58.9393 35.0448 58.1518 34.245 57.0045 34.245C55.8655 34.245 55.0391 35.0602 54.9551 36.2592Z" fill="black"/>
<path d="M62.142 33.0235H63.7176V34.3734H63.756C64.0079 33.476 64.742 32.9407 65.6902 32.9407C65.9271 32.9407 66.1262 32.9708 66.2564 33.001V34.5242C66.1262 34.4716 65.8359 34.426 65.5145 34.426C64.4517 34.426 63.7937 35.1353 63.7937 36.2515V40.9579H62.142V33.0235Z" fill="black"/>
<path d="M71.6098 40.9578H69.8357L66.9377 33.0234H68.6962L70.715 39.3666H70.7455L72.7643 33.0234H74.4928L71.6098 40.9578Z" fill="black"/>
<path d="M75.6 30.934C75.6 30.414 76.0282 29.9988 76.556 29.9988C77.091 29.9988 77.5192 30.414 77.5192 30.934C77.5192 31.4469 77.091 31.8621 76.556 31.8621C76.0282 31.8621 75.6 31.4469 75.6 30.934ZM75.7296 33.0233H77.3813V40.9577H75.7296V33.0233Z" fill="black"/>
<path d="M84.5586 35.7535C84.4135 34.9164 83.7483 34.2906 82.6622 34.2906C81.3925 34.2906 80.5516 35.3388 80.5516 36.991C80.5516 38.6804 81.4003 39.6985 82.6772 39.6985C83.7021 39.6985 84.3751 39.1927 84.5586 38.2728H86.1492C85.9656 39.9398 84.612 41.0561 82.6622 41.0561C80.3681 41.0561 78.8693 39.5098 78.8693 36.991C78.8693 34.5242 80.3681 32.9253 82.6472 32.9253C84.7115 32.9253 85.9962 34.2078 86.1342 35.7535H84.5586Z" fill="black"/>
<path d="M94.4522 38.6272C94.2303 40.0682 92.8083 41.0561 90.988 41.0561C88.6483 41.0561 87.1951 39.5098 87.1951 37.0282C87.1951 34.5396 88.6555 32.9253 90.919 32.9253C93.1441 32.9253 94.544 34.4337 94.544 36.8395V37.398H88.8619V37.4961C88.8619 38.8537 89.7261 39.7434 91.0264 39.7434C91.944 39.7434 92.6625 39.3134 92.8844 38.6272H94.4522ZM88.8697 36.2592H92.8922C92.8539 35.0448 92.0664 34.245 90.919 34.245C89.7795 34.245 88.9542 35.0602 88.8697 36.2592Z" fill="black"/>
<path d="M103.801 30.0747C105.942 30.0747 107.433 31.5299 107.433 33.6494C107.433 35.7766 105.912 37.2395 103.747 37.2395H101.377V40.9579H99.6641V30.0747H103.801ZM101.377 35.8216H103.342C104.833 35.8216 105.682 35.0295 105.682 33.6571C105.682 32.2847 104.833 31.5003 103.35 31.5003H101.377V35.8216Z" fill="black"/>
<path d="M108.843 33.0235H110.419V34.3734H110.457C110.709 33.476 111.443 32.9407 112.392 32.9407C112.629 32.9407 112.828 32.9708 112.958 33.001V34.5242C112.828 34.4716 112.537 34.426 112.216 34.426C111.153 34.426 110.495 35.1353 110.495 36.2515V40.9579H108.843V33.0235Z" fill="black"/>
<path d="M113.514 36.991C113.514 34.4941 115.005 32.9253 117.33 32.9253C119.662 32.9253 121.146 34.4941 121.146 36.991C121.146 39.4944 119.67 41.0561 117.33 41.0561C114.99 41.0561 113.514 39.4944 113.514 36.991ZM119.464 36.991C119.464 35.2785 118.669 34.2681 117.33 34.2681C115.992 34.2681 115.197 35.2861 115.197 36.991C115.197 38.71 115.992 39.7133 117.33 39.7133C118.669 39.7133 119.464 38.71 119.464 36.991Z" fill="black"/>
<path d="M126.428 40.9578H124.654L121.756 33.0234H123.515L125.533 39.3666H125.564L127.583 33.0234H129.311L126.428 40.9578Z" fill="black"/>
<path d="M130.419 30.934C130.419 30.414 130.847 29.9988 131.375 29.9988C131.91 29.9988 132.338 30.414 132.338 30.934C132.338 31.4469 131.91 31.8621 131.375 31.8621C130.847 31.8621 130.419 31.4469 130.419 30.934ZM130.549 33.0233H132.2V40.9577H130.549V33.0233Z" fill="black"/>
<path d="M133.766 36.991C133.766 34.5397 135.135 32.9407 137.131 32.9407C138.286 32.9407 139.196 33.4684 139.654 34.3433H139.685V30.0747H141.344V40.9579H139.739V39.608H139.708C139.234 40.5131 138.316 41.0407 137.146 41.0407C135.135 41.0407 133.766 39.4418 133.766 36.991ZM135.457 36.991C135.457 38.6201 136.297 39.6607 137.582 39.6607C138.852 39.6607 139.7 38.6048 139.7 36.991C139.7 35.3915 138.852 34.3285 137.582 34.3285C136.297 34.3285 135.457 35.3767 135.457 36.991Z" fill="black"/>
<path d="M150.167 38.6272C149.945 40.0682 148.523 41.0561 146.703 41.0561C144.364 41.0561 142.91 39.5098 142.91 37.0282C142.91 34.5396 144.371 32.9253 146.634 32.9253C148.859 32.9253 150.259 34.4337 150.259 36.8395V37.398H144.577V37.4961C144.577 38.8537 145.441 39.7434 146.742 39.7434C147.659 39.7434 148.378 39.3134 148.6 38.6272H150.167ZM144.585 36.2592H148.607C148.569 35.0448 147.782 34.245 146.634 34.245C145.495 34.245 144.669 35.0602 144.585 36.2592Z" fill="black"/>
<path d="M151.678 33.0235H153.253V34.3734H153.292C153.543 33.476 154.278 32.9407 155.226 32.9407C155.463 32.9407 155.662 32.9708 155.792 33.001V34.5242C155.662 34.4716 155.371 34.426 155.05 34.426C153.987 34.426 153.329 35.1353 153.329 36.2515V40.9579H151.678V33.0235Z" fill="black"/>
</svg>
