<svg width="32" height="32" viewBox="0 0 32 32" fill="none" xmlns="http://www.w3.org/2000/svg">
<path d="M12 8H20C20 5.79086 18.2092 3.99999 16 3.99999C13.7908 3.99999 12 5.79086 12 8ZM9.33333 8C9.33333 4.3181 12.3181 1.33333 16 1.33333C19.6819 1.33333 22.6667 4.3181 22.6667 8H26.6667C27.4031 8 28 8.59696 28 9.33333V28C28 28.7364 27.4031 29.3333 26.6667 29.3333H5.33333C4.59696 29.3333 4 28.7364 4 28V9.33333C4 8.59696 4.59696 8 5.33333 8H9.33333ZM6.66667 10.6667V26.6667H25.3333V10.6667H6.66667ZM12 13.3333C12 15.5425 13.7908 17.3333 16 17.3333C18.2092 17.3333 20 15.5425 20 13.3333H22.6667C22.6667 17.0152 19.6819 20 16 20C12.3181 20 9.33333 17.0152 9.33333 13.3333H12Z" fill="#19191A"/>
</svg>
